<?xml version="1.0" standalone="no"?>
<!DOCTYPE svg PUBLIC "-//W3C//DTD SVG 20010904//EN"
 "http://www.w3.org/TR/2001/REC-SVG-20010904/DTD/svg10.dtd">
<svg version="1.0" xmlns="http://www.w3.org/2000/svg"
 width="163.000000pt" height="163.000000pt" viewBox="0 0 163.000000 163.000000"
 preserveAspectRatio="xMidYMid meet">
<metadata>
Created by potrace 1.11, written by Peter Selinger 2001-2013
</metadata>
<g transform="translate(0.000000,163.000000) scale(0.100000,-0.100000)"
fill="#000000" stroke="none">
<path d="M603 1522 c-139 -59 -253 -109 -253 -112 0 -3 31 -18 69 -33 l70 -28
98 41 c54 23 107 45 118 50 11 5 46 20 78 34 l57 25 231 -98 231 -98 -148 -63
c-82 -35 -164 -69 -182 -77 l-32 -13 44 -43 c24 -23 45 -49 48 -56 3 -12 36
-2 149 46 79 34 151 63 159 65 13 3 15 -27 17 -217 1 -121 2 -228 2 -238 1
-18 27 -32 139 -76 l52 -21 -2 366 -3 366 -70 29 c-38 16 -79 34 -90 39 -60
27 -520 220 -524 219 -3 0 -120 -49 -258 -107z"/>
<path d="M165 1335 l-80 -33 -3 -494 -3 -494 23 -11 c13 -7 100 -44 193 -83
94 -40 184 -78 200 -85 17 -7 82 -34 145 -61 63 -26 120 -52 127 -56 27 -21
83 -4 353 112 157 66 318 135 358 152 l72 31 0 103 c0 71 -4 105 -12 111 -23
14 -191 83 -203 83 -7 0 -90 -33 -184 -74 -94 -40 -171 -70 -172 -67 0 3 -1
114 -2 246 -2 230 -3 242 -25 287 -33 66 -84 106 -193 152 -52 22 -188 79
-303 128 -114 48 -209 88 -210 88 0 -1 -37 -16 -81 -35z m355 -435 c50 -25 90
-68 113 -120 16 -36 20 -70 22 -182 l3 -137 -37 15 c-20 8 -75 31 -123 51
l-88 37 0 193 0 192 38 -16 c20 -8 53 -23 72 -33z"/>
</g>
</svg>
